{
  "accessors": [
    {
      "bufferView": 0,
      "componentType": 5126,
      "count": 27800,
      "max": [
        0.11322972178459167,
        0.539273202419281,
        0.033216752111911774
      ],
      "min": [
        -0.1127382293343544,
        -0.6526834964752197,
        -0.033055443316698074
      ],
      "type": "VEC3"
    },
    {
      "bufferView": 1,
      "componentType": 5126,
      "count": 27800,
      "max": [
        0.9999911785125732,
        0.9987276196479797,
        0.9999933242797852
      ],
      "min": [
        -0.9999969005584717,
        -0.9998986721038818,
        -0.9999465346336365
      ],
      "type": "VEC3"
    },
    {
      "bufferView": 2,
      "componentType": 5126,
      "count": 27800,
      "max": [
        0.999984085559845,
        0.9999468922615051,
        0.9999098777770996,
        1.0
      ],
      "min": [
        -0.9999445676803589,
        -0.9997856616973877,
        -0.9999958872795105,
        -1.0
      ],
      "type": "VEC4"
    },
    {
      "bufferView": 3,
      "componentType": 5126,
      "count": 27800,
      "max": [
        0.7261409759521484,
        1.0
      ],
      "min": [
        -1.2235776836178047e-09,
        0.0
      ],
      "type": "VEC2"
    },
    {
      "bufferView": 4,
      "componentType": 5125,
      "count": 127842,
      "max": [
        27799
      ],
      "min": [
        0
      ],
      "type": "SCALAR"
    }
  ],
  "asset": {
    "version": "2.0"
  },
  "bufferViews": [
    {
      "buffer": 0,
      "byteLength": 333600,
      "target": 34962
    },
    {
      "buffer": 0,
      "byteLength": 333600,
      "byteOffset": 333600,
      "target": 34962
    },
    {
      "buffer": 0,
      "byteLength": 444800,
      "byteOffset": 667200,
      "target": 34962
    },
    {
      "buffer": 0,
      "byteLength": 222400,
      "byteOffset": 1112000,
      "target": 34962
    },
    {
      "buffer": 0,
      "byteLength": 511368,
      "byteOffset": 1334400,
      "target": 34963
    }
  ],
  "buffers": [
    {
      "byteLength": 1845768,
      "uri": "tf.bin"
    }
  ],
  "images": [
    {
      "uri": "Human Sword_LV1_Diffuse.png"
    },
    {
      "uri": "Human Sword_LV1_Roughness.png"
    },
    {
      "uri": "Human Sword_LV1_Normal.png"
    }
  ],
  "materials": [
    {
      "emissiveTexture": {
        "index": 1
      },
      "name": "Human Sword_LV1",
      "normalTexture": {
        "index": 2
      },
      "pbrMetallicRoughness": {
        "baseColorFactor": [
          0.800000011920929,
          0.800000011920929,
          0.800000011920929,
          1.0
        ],
        "baseColorTexture": {
          "index": 0
        },
        "metallicFactor": 0.0,
        "metallicRoughnessTexture": {
          "index": 1
        }
      }
    }
  ],
  "meshes": [
    {
      "primitives": [
        {
          "attributes": {
            "NORMAL": 1,
            "POSITION": 0,
            "TANGENT": 2,
            "TEXCOORD_0": 3
          },
          "indices": 4,
          "material": 0,
          "mode": 4
        }
      ]
    }
  ],
  "nodes": [
    {
      "mesh": 0,
      "name": "Human Sword_LV1",
      "rotation": [
        0.0,
        0.0,
        -0.9999383687973022,
        0.011110426858067513
      ],
      "scale": [
        1.0,
        1.0,
        1.0
      ],
      "translation": [
        0.0,
        0.0,
        0.0
      ]
    }
  ],
  "samplers": [
    {
      "wrapS": 10497,
      "wrapT": 10497
    }
  ],
  "scenes": [
    {
      "nodes": [
        0
      ]
    }
  ],
  "textures": [
    {
      "sampler": 0,
      "source": 0
    },
    {
      "sampler": 0,
      "source": 1
    },
    {
      "sampler": 0,
      "source": 2
    }
  ]
}
